# xmcd
#
# Track frame offsets:
#	150
#	12555
#	24747
#	37247
#	50155
#	61005
#	72305
#	82322
#	96062
#	108032
#	119077
#	130352
#	143715
#	155245
#	166147
#	177457
#	188642
#	200132
#	211715
#	220985
#
# Disc length: 3081 seconds
#
# Revision: 0
# Processed by: cddbd v1.5.2PL0 Copyright (c) Steve Scherf et al.
# Submitted via: audiograbber 1.83.01
#
DISCID=350c0714
DTITLE=Willie Nelson - 20 Country Classics
DYEAR=1998
DGENRE=Country
TTITLE0=Country Willie
TTITLE1=Willingly
TTITLE2=Mr Record Man
TTITLE3=Crazy
TTITLE4=Hello Walls
TTITLE5=There´s gonna be love at my house tonight
TTITLE6=Touch me
TTITLE7=Funny How Time Slips away
TTITLE8=This Cold War With You
TTITLE9=Half A Man
TTITLE10=You Took My Happy Away
TTITLE11=The Last Letter
TTITLE12=Seasons Of My Heart
TTITLE13=I´ll Walk Alone
TTITLE14=I Hope So
TTITLE15=River Roy
TTITLE16=Take Me As I Am (Or Let Me Go)
TTITLE17=Undo The Right
TTITLE18=Columbus Stockade Blues
TTITLE19=There´ll Be No Teardrops Tonight
EXTD=
EXTT0=
EXTT1=
EXTT2=
EXTT3=
EXTT4=
EXTT5=
EXTT6=
EXTT7=
EXTT8=
EXTT9=
EXTT10=
EXTT11=
EXTT12=
EXTT13=
EXTT14=
EXTT15=
EXTT16=
EXTT17=
EXTT18=
EXTT19=
PLAYORDER=
